<svg xmlns="http://www.w3.org/2000/svg" width="810" height="810" viewBox="0 0 810 810">
  <g id="Group_11" data-name="Group 11" transform="translate(-253.578 -160.578)">
    <rect id="Rectangle_2" data-name="Rectangle 2" width="810" height="810" transform="translate(253.578 160.578)" fill="#614be6"/>
    <g id="Group_9" data-name="Group 9" transform="translate(362.018 396.677)">
      <g id="Group_8" data-name="Group 8" transform="translate(0 0)">
        <g id="Group_7" data-name="Group 7" transform="translate(0 0)">
          <g id="Group_10" data-name="Group 10" transform="translate(0)">
            <path id="Path_1" data-name="Path 1" d="M91.087,162.99q-26.027,0-44.411-9.5a66.767,66.767,0,0,1-28.3-27.266Q8.463,108.458,8.463,83.257V-4.325q0-25.614,9.915-43.378a65.512,65.512,0,0,1,28.3-27.059q18.384-9.3,44.411-9.3,25.614,0,43.584,7.849t27.473,23.754q9.5,15.905,9.5,40.279v25.2h-64.86V-14.239q0-9.5-1.859-14.666t-5.371-7.23A16.423,16.423,0,0,0,91.087-38.2a12.677,12.677,0,0,0-8.262,2.685q-3.3,2.685-4.957,8.676T76.215-10.108V89.041q0,16.112,3.925,21.9A12.883,12.883,0,0,0,91.5,116.72a15.029,15.029,0,0,0,8.676-2.272q3.3-2.272,4.957-7.436a46.823,46.823,0,0,0,1.652-13.84V61.362h64.86V90.28q0,23.961-9.708,40.279a59.774,59.774,0,0,1-27.679,24.374Q116.288,162.99,91.087,162.99Zm159.465,0q-31.4,0-52.26-14.046T164.21,103.087l45.857-20.243q6.61,16.112,15.492,25.407t19.623,9.3q7.849,0,11.774-3.3a11.246,11.246,0,0,0,3.925-9.089q0-9.5-7.23-17.351T227.83,64.667L210.479,50.207q-19-16.112-29.951-31.191T169.58-18.371q0-19.417,10.121-34.289a68.206,68.206,0,0,1,27.059-23.135,81.822,81.822,0,0,1,36.355-8.262q29.332,0,49.161,16.112T319.957-22.5L276.579-2.672a78.617,78.617,0,0,0-7.023-15.7,49.25,49.25,0,0,0-10.948-13.22,21.131,21.131,0,0,0-13.84-5.371q-6.61,0-10.535,3.718a13.016,13.016,0,0,0-3.925,9.915q0,7.849,8.882,16.938a304.433,304.433,0,0,0,24.581,21.9L280.71,30.378q10.328,8.676,20.243,18.59a92.563,92.563,0,0,1,16.318,21.9,56.937,56.937,0,0,1,6.4,27.266q0,20.656-10.328,35.322a64.454,64.454,0,0,1-27.059,22.1A86.99,86.99,0,0,1,250.552,162.99Zm71.883-4.131V-175.77h66.926V9.722l58.663-89.647h75.6L460,17.984,522.8,158.858H449.264L407.125,45.25,389.361,67.972v90.887Z" transform="translate(-8.463 175.77)" fill="#fff"/>
            <circle id="Ellipse_1" data-name="Ellipse 1" cx="40.429" cy="40.429" r="40.429" transform="translate(514.145 257.566)" fill="#fff"/>
          </g>
        </g>
      </g>
    </g>
  </g>
</svg>
