<svg xmlns="http://www.w3.org/2000/svg" width="278" height="278" viewBox="0 0 278 278"><defs><style>.a{fill:#6a5acd;}.b{fill:#fff;}</style></defs><g transform="translate(-310 -206)"><rect class="a" width="278" height="278" transform="translate(310 206)"/><path class="b" d="M9.66-125.12a41.841,41.841,0,0,1,3.45-17.48,36.938,36.938,0,0,1,9.2-12.65,38.894,38.894,0,0,1,12.535-7.36,41.429,41.429,0,0,1,14.145-2.53,41.429,41.429,0,0,1,14.145,2.53A41.693,41.693,0,0,1,75.9-155.25a38.513,38.513,0,0,1,8.97,12.65,41.84,41.84,0,0,1,3.45,17.48v8.28H64.86v-8.28q0-8.51-4.715-12.535A16.63,16.63,0,0,0,48.99-141.68a16.63,16.63,0,0,0-11.155,4.025Q33.12-133.63,33.12-125.12v86.48q0,8.51,4.715,12.535A16.63,16.63,0,0,0,48.99-22.08,16.63,16.63,0,0,0,60.145-26.1Q64.86-30.13,64.86-38.64V-69.46H46.23v-20.7H88.32v51.52q0,10.35-3.45,17.71A36.536,36.536,0,0,1,75.9-8.74,39.44,39.44,0,0,1,63.135-1.15,41.428,41.428,0,0,1,48.99,1.38,41.428,41.428,0,0,1,34.845-1.15,36.905,36.905,0,0,1,22.31-8.74a35.114,35.114,0,0,1-9.2-12.19Q9.66-28.29,9.66-38.64ZM114.54,0V-141.68s-20.4-.048-20.356,0A44.049,44.049,0,0,0,75.9-163.76h89.24v22.08H138V0Z" transform="translate(361.34 427.14)"/></g></svg>