<?xml version="1.0" standalone="no"?>
<!DOCTYPE svg PUBLIC "-//W3C//DTD SVG 20010904//EN"
 "http://www.w3.org/TR/2001/REC-SVG-20010904/DTD/svg10.dtd">
<svg version="1.0" xmlns="http://www.w3.org/2000/svg"
 width="700.000000pt" height="700.000000pt" viewBox="0 0 700.000000 700.000000"
 preserveAspectRatio="xMidYMid meet">
<metadata>
Created by potrace 1.11, written by Peter Selinger 2001-2013
</metadata>
<g transform="translate(0.000000,700.000000) scale(0.100000,-0.100000)"
fill="#000000" stroke="none">
<path d="M0 3500 l0 -3500 3500 0 3500 0 0 3500 0 3500 -3500 0 -3500 0 0
-3500z m4232 663 l3 -797 250 382 250 382 322 0 c178 0 323 -3 323 -6 0 -4
-119 -189 -263 -413 -145 -223 -267 -411 -270 -417 -4 -6 111 -274 254 -595
143 -321 265 -594 270 -607 l9 -22 -318 0 -317 0 -180 485 c-98 267 -182 484
-186 483 -4 -2 -39 -43 -78 -93 l-71 -90 0 -392 0 -393 -290 0 -290 0 -1 193
0 192 -23 -61 c-26 -70 -77 -145 -136 -197 -128 -116 -327 -177 -529 -162
-279 20 -471 136 -603 364 -31 53 -32 54 -41 30 -85 -208 -203 -312 -422 -370
-115 -31 -365 -31 -478 -1 -229 62 -393 222 -454 443 -16 58 -18 117 -18 599
0 480 2 542 18 600 72 266 270 425 572 460 233 28 477 -26 617 -135 81 -63
176 -228 179 -309 0 -12 10 8 22 44 31 93 71 156 143 226 181 176 495 231 744
130 179 -73 317 -239 384 -461 5 -18 -14 -30 -179 -104 -102 -46 -187 -82
-189 -80 -2 2 -19 38 -39 79 -67 141 -161 218 -253 207 -81 -9 -127 -80 -100
-157 19 -55 60 -103 171 -200 54 -47 157 -136 229 -199 226 -196 311 -295 363
-421 l23 -55 0 1118 0 1117 290 0 290 0 2 -797z m1623 -1454 c32 -12 77 -41
108 -69 141 -129 154 -345 28 -482 -27 -30 -73 -67 -103 -83 -49 -28 -60 -30
-158 -30 -94 0 -110 3 -155 27 -63 33 -139 114 -166 175 -32 76 -36 158 -10
244 20 63 31 81 84 134 77 77 140 104 244 104 50 1 90 -5 128 -20z"/>
<path d="M1581 3744 c-55 -46 -56 -59 -56 -649 0 -601 0 -599 65 -643 41 -28
108 -26 142 4 43 39 52 79 56 272 l4 182 280 0 279 0 -3 -165 c-2 -91 -1 -165
1 -165 2 0 74 32 161 70 87 39 160 70 163 70 3 0 25 -36 47 -79 46 -88 116
-168 172 -194 44 -21 139 -22 177 -3 77 40 65 148 -29 249 -30 33 -127 121
-215 195 -278 233 -405 369 -451 481 l-24 56 0 -47 0 -48 -279 0 -278 0 -5
168 c-4 134 -9 174 -23 204 -34 68 -127 90 -184 42z"/>
</g>
</svg>
