<?xml version="1.0" standalone="no"?>
<!DOCTYPE svg PUBLIC "-//W3C//DTD SVG 20010904//EN"
 "http://www.w3.org/TR/2001/REC-SVG-20010904/DTD/svg10.dtd">
<svg version="1.0" xmlns="http://www.w3.org/2000/svg"
 width="700.000000pt" height="700.000000pt" viewBox="0 0 700.000000 700.000000"
 preserveAspectRatio="xMidYMid meet">
<metadata>
Created by potrace 1.11, written by Peter Selinger 2001-2013
</metadata>
<g transform="translate(0.000000,700.000000) scale(0.100000,-0.100000)"
fill="#000000" stroke="none">
<path d="M0 3500 l0 -3500 3500 0 3500 0 0 3500 0 3500 -3500 0 -3500 0 0
-3500z m2782 2056 c237 -61 442 -199 562 -380 52 -78 110 -206 135 -295 27
-98 43 -259 39 -396 l-3 -110 -292 -3 -293 -2 0 97 c0 148 -15 255 -46 323
-94 209 -399 275 -608 131 -62 -43 -102 -100 -126 -180 -20 -65 -20 -92 -18
-1271 l3 -1205 33 -67 c39 -79 92 -129 181 -172 62 -29 73 -31 176 -31 146 1
205 23 292 110 51 51 65 73 84 131 22 67 23 83 27 507 l4 437 -236 0 -236 0 0
260 0 260 530 0 530 0 0 -658 c0 -405 -4 -701 -11 -767 -43 -426 -305 -727
-734 -847 -93 -25 -299 -35 -402 -18 -424 67 -748 376 -818 777 -13 73 -15
266 -15 1312 0 1157 1 1231 19 1316 38 185 114 333 235 463 150 159 359 267
581 302 103 16 298 4 407 -24z m2668 -276 l0 -280 -340 0 -340 0 0 -1785 0
-1785 -295 0 -295 0 0 1785 0 1785 -258 0 -258 0 -29 68 c-34 77 -123 214
-190 289 -41 47 -150 140 -215 185 -24 16 39 17 1098 17 l1122 1 0 -280z"/>
</g>
</svg>
